<?xml version="1.0" encoding="utf-8"?>
<!-- Generator: Adobe Illustrator 23.0.5, SVG Export Plug-In . SVG Version: 6.00 Build 0)  -->
<svg version="1.1" id="Слой_1" xmlns="http://www.w3.org/2000/svg" xmlns:xlink="http://www.w3.org/1999/xlink" x="0px" y="0px"
	 viewBox="0 0 618 375" style="enable-background:new 0 0 618 375;" xml:space="preserve">
<style type="text/css">
	.st0{fill:#505250;}
	.st1{fill:#D05D27;}
	.st2{fill:#FFFFFF;}
	.st3{fill:#303031;}
</style>
<g>
	<path class="st0" d="M39.3,259.2h422.8c59,0,106.9-47.9,106.9-106.9v-24.6H146.2c-59,0-106.9,47.9-106.9,106.9V259.2z"/>
	<g>
		<g>
			<g>
				<path class="st1" d="M110.1,189.1l-1-12.8H92l-4.9,12.8H70.8l1-6.6l25.6-54h21.2l8.7,54.2l-1,6.5H110.1z M107.8,164.3l-2-21.2
					h-0.1l-8.6,21.2H107.8z"/>
				<path class="st2" d="M118.3,129l8.6,53.7l-0.9,6h-15.3l-1-12.8H91.7l-4.9,12.8H71.4l0.9-6L97.8,129H118.3 M96.4,164.8h11.9
					l-2-22.2h-0.9L96.4,164.8 M119.1,128h-0.9H97.8h-0.6l-0.3,0.6l-25.5,53.7l-0.1,0.1l0,0.1l-0.9,6l-0.2,1.2h1.2h15.3h0.7l0.2-0.6
					l4.7-12.1h16.3l0.9,11.9l0.1,0.9h0.9h15.3h0.9l0.1-0.8l0.9-6l0-0.2l0-0.2l-8.6-53.7L119.1,128L119.1,128z M97.9,163.8l7.6-18.7
					l1.7,18.7H97.9L97.9,163.8z"/>
			</g>
			<g>
				<path class="st1" d="M143.8,189.1c-4,0-7.2-1.2-9.1-3.5c-1.8-2.2-2.5-5.1-1.9-8.6l0.5-3.4c1-6.6,6.5-10.6,11.1-11.5l14.5-2.6
					c2-0.4,2.4-1.4,2.5-2.1l0.3-1.7c0.1-0.5,0-0.9-0.2-1.1c-0.2-0.3-0.6-0.4-1.1-0.4h-17.7l-3-4.2l1-7h25.6c4,0,7.2,1.2,9.1,3.5
					c1.8,2.2,2.5,5.1,1.9,8.6l-0.6,3.8c-1,6.6-6.5,10.6-11.1,11.5l-14.4,2.6c-1.6,0.3-2.4,1-2.6,2.1l-0.3,1.3
					c-0.1,0.5,0,0.9,0.2,1.2c0.2,0.2,0.6,0.3,1.2,0.3h22.7l-1.8,11.2H143.8z"/>
				<path class="st2" d="M166.2,143.5c7.8,0,11.7,4.7,10.6,11.5l-0.6,3.8c-0.9,6-6,10.1-10.7,11.1l-14.4,2.6c-1.8,0.3-2.8,1.2-3,2.6
					l-0.3,1.3c-0.2,1.4,0.4,2.1,1.9,2.1h22.2l-1.6,10.2h-26.4c-7.8,0-11.7-4.7-10.6-11.5l0.5-3.4c0.9-6,5.9-10.1,10.7-11.1l14.5-2.6
					c1.8-0.3,2.7-1.2,2.9-2.6l0.3-1.7c0.3-1.3-0.5-2.1-1.8-2.1h-17.5l-2.7-3.8l0.9-6.4H166.2 M166.2,142.5h-25.1h-0.9l-0.1,0.9
					l-0.9,6.4l-0.1,0.4l0.2,0.3l2.7,3.8l0.3,0.4h0.5h17.5c0.3,0,0.6,0.1,0.7,0.2c0.2,0.2,0.1,0.5,0.1,0.7l-0.3,1.8
					c-0.1,0.6-0.4,1.4-2.1,1.7l-14.5,2.6c-4.8,0.9-10.5,5.1-11.6,11.9l-0.5,3.4c-0.6,3.6,0.1,6.7,2.1,9c2.1,2.4,5.3,3.7,9.5,3.7
					h26.4h0.9l0.1-0.8l1.6-10.2l0.2-1.2h-1.2h-22.2c-0.6,0-0.8-0.1-0.8-0.2c0,0-0.2-0.2-0.1-0.8l0.2-1.2l0,0l0,0
					c0-0.4,0.2-1.3,2.2-1.7l14.4-2.6c4.8-0.9,10.5-5.1,11.6-11.9l0.6-3.8c0.6-3.6-0.1-6.7-2.1-9
					C173.7,143.7,170.4,142.5,166.2,142.5L166.2,142.5z"/>
			</g>
			<g>
				<path class="st1" d="M177.6,203.6l9.5-60.7h10.2l1.2,5.2c0.5-0.9,1.1-1.8,2-2.7c2.3-2.3,4.8-3.4,7.7-3.4h8.9
					c3.9,0,7.2,1.3,9.3,3.8c1.9,2.3,2.7,5.4,2.1,8.8l-3.5,22.2c-1.2,7.3-7.4,12.4-15.2,12.4h-14.5l-2.3,14.5H177.6z M207.2,177.9
					c1,0,2.2-1.1,2.4-2.2l3.2-20.4c0.1-0.5,0-0.9-0.4-1.3c-0.3-0.4-0.8-0.6-1.3-0.6h-6.8c-1.2,0-2.1,0.4-3,1.4
					c-0.4,0.4-0.7,0.8-0.9,1.3l-3.4,21.9H207.2z"/>
				<path class="st2" d="M217.1,142.6c7.7,0,12,5.1,10.9,11.9l-3.5,22.2c-1.1,6.8-7,11.9-14.7,11.9h-14.9l-2.3,14.5h-14.5l9.4-59.7
					h9.4l1.3,5.5h0.4c0.6-1.1,1.3-2.2,2.2-3.2c1.6-1.6,3.9-3.2,7.3-3.2H217.1 M196.6,178.4h10.7c1.3,0,2.6-1.3,2.9-2.6l3.2-20.5
					c0.3-1.3-0.9-2.6-2.1-2.6h-6.8c-1.6,0-2.6,0.8-3.3,1.5c-0.4,0.4-0.8,0.9-1,1.4L196.6,178.4 M217.1,141.6h-8.9
					c-3,0-5.7,1.2-8,3.5c-0.5,0.5-1,1.1-1.4,1.7l-0.8-3.6l-0.2-0.8h-0.8h-9.4h-0.9l-0.1,0.8l-9.4,59.7l-0.2,1.2h1.2h14.5h0.9
					l0.1-0.8l2.2-13.6h14.1c8,0,14.4-5.3,15.6-12.8l3.5-22.2c0.6-3.5-0.2-6.8-2.2-9.2C224.6,143,221.2,141.6,217.1,141.6
					L217.1,141.6z M201,156.1c0.2-0.4,0.5-0.8,0.8-1.1l0,0l0,0c0.7-0.8,1.5-1.2,2.6-1.2h6.8c0.3,0,0.7,0.2,0.9,0.5
					c0.2,0.3,0.3,0.6,0.3,0.9l-3.2,20.5c-0.2,0.8-1.1,1.7-1.9,1.7h-9.5L201,156.1L201,156.1z"/>
			</g>
			<g>
				<path class="st1" d="M244.6,190c-3.9,0-7.2-1.3-9.3-3.8c-1.9-2.3-2.7-5.4-2.1-8.8l3.7-23c1.2-7.3,7.4-12.4,15.2-12.4h18.3
					c3.9,0,7.2,1.3,9.3,3.8c1.9,2.3,2.7,5.4,2.1,8.8l-3.7,23c-1.2,7.3-7.4,12.4-15.2,12.4H244.6z M254.7,153.3c-1,0-2.3,1.1-2.5,2.2
					l-3.3,21.3c-0.1,0.5,0,0.9,0.4,1.3c0.3,0.4,0.8,0.6,1.3,0.6h9.8c1,0,2.3-1.1,2.5-2.2l3.3-21.3c0.1-0.5,0-0.9-0.4-1.3
					c-0.3-0.4-0.8-0.6-1.3-0.6H254.7z"/>
				<path class="st2" d="M270.4,142.6c7.7,0,12,5.1,10.9,11.9l-3.7,23c-1.1,6.8-7,11.9-14.7,11.9h-18.3c-7.7,0-12-5.1-10.9-11.9
					l3.7-23c1.1-6.8,7-11.9,14.7-11.9H270.4 M250.5,179.2h9.8c1.3,0,2.7-1.3,3-2.6l3.3-21.3c0.3-1.3-0.9-2.6-2.1-2.6h-9.8
					c-1.3,0-2.7,1.3-3,2.6l-3.3,21.3C248.1,178,249.2,179.2,250.5,179.2 M270.4,141.6H252c-8,0-14.4,5.3-15.6,12.8l-3.7,23
					c-0.6,3.5,0.2,6.8,2.2,9.2c2.2,2.5,5.6,3.9,9.7,3.9h18.3c8,0,14.4-5.3,15.6-12.8l3.7-23c0.6-3.5-0.2-6.8-2.2-9.2
					C277.9,143,274.4,141.6,270.4,141.6L270.4,141.6z M250.5,178.2c-0.3,0-0.7-0.2-0.9-0.5c-0.2-0.3-0.3-0.6-0.3-0.9l3.3-21.3
					c0.2-0.8,1.2-1.7,2-1.7h9.8c0.3,0,0.7,0.2,0.9,0.5c0.2,0.3,0.3,0.6,0.3,0.9l-3.3,21.3c-0.2,0.8-1.2,1.7-2,1.7H250.5L250.5,178.2
					z"/>
			</g>
			<g>
				<polygon class="st1" points="318.3,189.1 326,140.6 310.8,140.6 303.2,189.1 286.8,189.1 296.3,128.5 344.2,128.5 334.7,189.1 
									"/>
				<path class="st2" d="M343.6,129l-9.4,59.7h-15.3l7.7-48.6h-16.2l-7.7,48.6h-15.3l9.4-59.7H343.6 M344.8,128h-1.2h-46.9h-0.9
					l-0.1,0.8l-9.4,59.7l-0.2,1.2h1.2h15.3h0.9l0.1-0.8l7.5-47.7h14.2l-7.5,47.4l-0.2,1.2h1.2h15.3h0.9l0.1-0.8l9.4-59.7L344.8,128
					L344.8,128z"/>
			</g>
			<g>
				<path class="st1" d="M343.7,203.6l9.5-60.7h10.2l1.2,5.2c0.5-0.9,1.1-1.8,2-2.7c2.3-2.3,4.8-3.4,7.7-3.4h8.9
					c3.9,0,7.2,1.3,9.3,3.8c1.9,2.3,2.7,5.4,2.1,8.8l-3.5,22.2c-1.2,7.3-7.4,12.4-15.2,12.4h-14.5l-2.3,14.5H343.7z M373.4,177.9
					c1,0,2.2-1.1,2.4-2.2l3.2-20.4c0.1-0.5,0-0.9-0.4-1.3c-0.3-0.4-0.8-0.6-1.3-0.6h-6.8c-1.2,0-2.1,0.4-3,1.4
					c-0.4,0.4-0.7,0.8-0.9,1.3l-3.4,21.9H373.4z"/>
				<path class="st2" d="M383.3,142.6c7.7,0,12,5.1,10.9,11.9l-3.5,22.2c-1.1,6.8-7,11.9-14.7,11.9h-14.9l-2.3,14.5h-14.5l9.4-59.7
					h9.4l1.3,5.5h0.4c0.6-1.1,1.3-2.2,2.2-3.2c1.6-1.6,3.9-3.2,7.3-3.2H383.3 M362.7,178.4h10.7c1.3,0,2.6-1.3,2.9-2.6l3.2-20.5
					c0.3-1.3-0.9-2.6-2.1-2.6h-6.8c-1.6,0-2.6,0.8-3.3,1.5c-0.4,0.4-0.8,0.9-1,1.4L362.7,178.4 M383.3,141.6h-8.9
					c-3,0-5.7,1.2-8,3.5c-0.5,0.5-1,1.1-1.4,1.7l-0.8-3.6l-0.2-0.8h-0.8h-9.4h-0.9l-0.1,0.8l-9.4,59.7l-0.2,1.2h1.2h14.5h0.9
					l0.1-0.8l2.2-13.6H376c8,0,14.4-5.3,15.6-12.8l3.5-22.2c0.6-3.5-0.2-6.8-2.2-9.2C390.8,143,387.3,141.6,383.3,141.6L383.3,141.6
					z M367.2,156.1c0.2-0.4,0.5-0.8,0.8-1.1l0,0l0,0c0.7-0.8,1.5-1.2,2.6-1.2h6.8c0.3,0,0.7,0.2,0.9,0.5c0.2,0.3,0.3,0.6,0.3,0.9
					l-3.2,20.5c-0.2,0.8-1.1,1.7-1.9,1.7h-9.5L367.2,156.1L367.2,156.1z"/>
			</g>
			<g>
				<path class="st1" d="M410.7,190c-3.9,0-7.2-1.3-9.3-3.8c-1.9-2.3-2.7-5.4-2.1-8.8l3.5-22.2c1.2-7.3,7.4-12.4,15.2-12.4h30.9
					l-7.2,46.2h-10.2l-1.2-5.2c-0.6,1.1-1.2,2-2,2.7c-2.2,2.2-4.7,3.3-7.7,3.3H410.7z M420.6,154.2c-1,0-2.2,1.1-2.4,2.2l-3.2,20.4
					c-0.1,0.5,0,0.9,0.4,1.3c0.3,0.4,0.8,0.6,1.3,0.6h7.8c1.5,0,2.4-0.8,2.9-1.3c0.4-0.4,0.7-0.8,0.9-1.3l3.5-21.9H420.6z"/>
				<path class="st2" d="M448.3,143.5l-7.1,45.2h-9.4l-1.3-5.5h-0.4c-0.6,1.2-1.3,2.3-2.2,3.2c-1.6,1.6-3.9,3.2-7.3,3.2h-9.9
					c-7.7,0-12-5.1-10.9-11.9l3.5-22.2c1.1-6.8,7-11.9,14.7-11.9H448.3 M432.2,153.7h-11.6c-1.3,0-2.6,1.3-2.9,2.6l-3.2,20.5
					c-0.3,1.3,0.9,2.6,2.1,2.6h7.8c1.4,0,2.6-0.7,3.2-1.4c0.4-0.4,0.8-0.9,1-1.5L432.2,153.7 M449.5,142.5h-1.2h-30.3
					c-8,0-14.4,5.3-15.6,12.8l-3.5,22.2c-0.6,3.5,0.2,6.8,2.2,9.2c2.2,2.5,5.6,3.9,9.7,3.9h9.9c3.1,0,5.7-1.1,8-3.4
					c0.5-0.5,1-1.1,1.4-1.8l0.8,3.6l0.2,0.8h0.8h9.4h0.9l0.1-0.8l7.1-45.2L449.5,142.5L449.5,142.5z M416.6,178.2
					c-0.3,0-0.7-0.2-0.9-0.5c-0.2-0.3-0.3-0.6-0.3-0.9l3.2-20.5c0.2-0.8,1.1-1.7,1.9-1.7H431l-3.4,21.3c-0.2,0.4-0.5,0.8-0.8,1.1
					l0,0l0,0c-0.4,0.4-1.2,1.1-2.5,1.1H416.6L416.6,178.2z"/>
			</g>
			<g>
				<path class="st1" d="M464.9,190c-3.9,0-7.2-1.3-9.3-3.8c-1.9-2.3-2.7-5.4-2.1-8.8l5.4-34.5h15.5l-5.3,33.8
					c-0.1,0.5,0,0.9,0.4,1.3c0.3,0.4,0.8,0.6,1.3,0.6h7.7c1.5,0,2.4-0.8,2.9-1.3c0.4-0.4,0.7-0.8,0.9-1.3l5.3-33.2H503l-7.2,46.2
					h-10.2l-1.2-5.2c-0.6,1.1-1.2,2-2,2.7c-2.2,2.2-4.7,3.3-7.7,3.3H464.9z"/>
				<path class="st2" d="M502.4,143.5l-7.1,45.2h-9.4l-1.3-5.5h-0.4c-0.6,1.2-1.3,2.3-2.2,3.2c-1.6,1.6-3.9,3.2-7.3,3.2h-9.8
					c-7.7,0-12-5.1-10.9-11.9l5.4-34.1h14.5l-5.2,33.2c-0.3,1.3,0.9,2.6,2.1,2.6h7.7c1.4,0,2.6-0.7,3.2-1.4c0.4-0.4,0.8-0.9,1-1.5
					l5.2-32.8H502.4 M503.6,142.5h-1.2h-14.5h-0.9l-0.1,0.8l-5.2,32.7c-0.2,0.4-0.5,0.8-0.8,1.1l0,0l0,0c-0.4,0.4-1.2,1.1-2.5,1.1
					h-7.7c-0.3,0-0.7-0.2-0.9-0.5c-0.2-0.3-0.3-0.6-0.3-0.9l5.2-33.3l0.2-1.2h-1.2h-14.5h-0.9l-0.1,0.8l-5.4,34.1
					c-0.6,3.5,0.2,6.8,2.2,9.2c2.2,2.5,5.6,3.9,9.7,3.9h9.8c3.1,0,5.7-1.1,8-3.4c0.5-0.5,1-1.1,1.4-1.8l0.8,3.6l0.2,0.8h0.8h9.4h0.9
					l0.1-0.8l7.1-45.2L503.6,142.5L503.6,142.5z"/>
			</g>
			<g>
				<polygon class="st1" points="552.7,189.1 555.4,161 544.6,183.6 529.4,183.6 525.7,161 525.7,161 519.6,189.1 504.1,189.1 
					505,183 517.4,143 534.8,143 539.4,167.7 539.6,167.7 551.9,143 569.4,143 569.1,183.1 568.2,189.1 				"/>
				<path class="st2" d="M568.9,143.5l-0.3,39.6l-0.9,5.5h-14.5l2.7-28.1h-0.9l-10.8,22.6h-14.5l-3.7-22.6h-0.9l-6.1,28.1h-14.5
					l0.9-5.5l12.2-39.6h16.6l4.7,24.7h0.9l12.4-24.7H568.9 M569.9,142.5h-1h-16.6h-0.6l-0.3,0.6l-11.6,23.3l-4.4-23l-0.2-0.8h-0.8
					h-16.6H517l-0.2,0.7l-12.2,39.6l0,0.1l0,0.1l-0.9,5.5l-0.2,1.2h1.2h14.5h0.8l0.2-0.8l5.5-25.2l3.2,19.6l0.1,0.8h0.9h14.5h0.6
					l0.3-0.6l9.4-19.7l-2.4,24.7l-0.1,1.1h1.1h14.5h0.9l0.1-0.8l0.9-5.5l0-0.1l0-0.1l0.3-39.6L569.9,142.5L569.9,142.5z"/>
			</g>
			<g>
				<path class="st1" d="M464.1,135.9c1.8-4.8,5.3-10.3,11.8-10.3h25.5c-1.2,6-5.9,10.3-11.4,10.3H464.1z"/>
				<g>
					<path class="st2" d="M500.8,126.1c-1.3,5.4-5.7,9.3-10.8,9.3h-25.1c2.4-6.2,6.2-9.3,11.1-9.3H500.8 M502,125.1h-0.7h-25.3
						c-6.3,0-10.3,4.8-12.5,11.3l1.2,0H490C496.2,136.4,501,131.4,502,125.1L502,125.1z"/>
				</g>
			</g>
		</g>
	</g>
	<g>
		<g>
			<path class="st2" d="M62.1,231.3l0.3-2h0.8c0.7,0,1-0.7,1.1-1.2l1.9-7.7h7.6l-1.7,10.7h-2.3l1.4-8.7h-3.2l-1.5,5.9
				c-0.4,1.8-1.8,2.9-3.5,2.9H62.1z"/>
			<path class="st3" d="M73.3,221l-1.5,9.7h-1.3l1.4-8.7h-4.2l-1.6,6.3c-0.4,1.6-1.5,2.6-3,2.6h-0.4l0.2-1h0.4
				c0.7,0,1.3-0.5,1.6-1.6l1.8-7.3H73.3 M74.5,220h-1.2h-6.7h-0.8l-0.2,0.8l-1.8,7.3c-0.1,0.3-0.3,0.8-0.6,0.8h-0.4H62l-0.1,0.8
				l-0.2,1l-0.2,1.2h1.2h0.4c2,0,3.5-1.3,4-3.3l1.4-5.5h2.2l-1.2,7.5l-0.2,1.2h1.2h1.3h0.9l0.1-0.8l1.5-9.7L74.5,220L74.5,220z"/>
		</g>
		<g>
			<path class="st2" d="M77.4,231.3c-1,0-1.8-0.3-2.3-0.9c-0.5-0.5-0.6-1.3-0.5-2.1l1.2-7.8h2.3l-1.3,8c0,0.3,0,0.5,0.2,0.6
				c0.1,0.2,0.3,0.2,0.6,0.2h2c0.6,0,1-0.4,1.3-0.7c0.2-0.2,0.3-0.4,0.5-0.7l1.2-7.5h2.3l-1.7,10.7h-1.8l0-0.5
				c-0.6,0.5-1.3,0.7-2,0.7H77.4z"/>
			<path class="st3" d="M84.3,221l-1.5,9.7h-0.8l0-1.3h-0.1c-0.2,0.3-0.4,0.5-0.6,0.7c-0.4,0.4-1,0.7-1.8,0.7h-2
				c-1.8,0-2.6-1-2.4-2.5l1.2-7.4h1.3l-1.2,7.4c-0.1,0.8,0.4,1.5,1.2,1.5h2c0.7,0,1.3-0.4,1.7-0.9c0.2-0.3,0.4-0.5,0.6-0.9L83,221
				H84.3 M85.4,220h-1.2H83h-0.9l-0.1,0.8l-1.1,6.9c-0.1,0.2-0.3,0.4-0.4,0.6c-0.3,0.3-0.6,0.5-0.9,0.5h-2c-0.1,0-0.2,0-0.2-0.1
				c0,0-0.1-0.1,0-0.2l1.2-7.4l0.2-1.2h-1.2h-1.3h-0.9l-0.1,0.8l-1.2,7.4c-0.2,1,0.1,1.9,0.6,2.5c0.4,0.5,1.2,1.1,2.7,1.1h2
				c0.5,0,1-0.1,1.5-0.3l0,0.1h1h0.8h0.9l0.1-0.8l1.5-9.7L85.4,220L85.4,220z"/>
		</g>
		<g>
			<path class="st2" d="M88.2,231.3c-1,0-1.8-0.3-2.3-0.9c-0.5-0.5-0.6-1.3-0.5-2.1l0.6-4c0.3-1.8,1.7-2.9,3.6-2.9h3.7l0.1-0.4
				c0.2-1-0.1-1.5-0.9-1.6l-4.9-0.8l0.7-2l4.8,0.8c2,0.3,3,1.7,2.7,3.8l-1.2,7.3c-0.3,1.8-1.7,2.9-3.6,2.9H88.2z M89.5,223.4
				c-0.6,0-1.1,0.5-1.2,1l-0.6,4c0,0.2,0,0.5,0.2,0.6c0.1,0.2,0.3,0.2,0.6,0.2H91c0.6,0,1.1-0.5,1.2-1l0.8-4.9H89.5z"/>
			<path class="st3" d="M88.5,217.1l4.3,0.7c1.6,0.3,2.5,1.4,2.2,3.2l-1.2,7.3c-0.2,1.5-1.4,2.5-3.1,2.5h-2.6c-1.8,0-2.6-1-2.4-2.5
				l0.6-4c0.2-1.5,1.4-2.5,3.1-2.5h4.1l0.1-0.8c0.2-1.4-0.4-2-1.3-2.2l-4.4-0.7L88.5,217.1 M93.6,222.9h-4.1c-0.8,0-1.6,0.6-1.7,1.5
				l-0.6,4c-0.1,0.8,0.4,1.5,1.2,1.5H91c0.8,0,1.6-0.6,1.7-1.5L93.6,222.9 M87.9,216l-0.3,0.8l-0.3,1l-0.4,1.1l1.2,0.2l4.4,0.7
				c0.2,0,0.6,0.1,0.5,1h-3.3c-2.2,0-3.8,1.3-4.1,3.3l-0.6,4c-0.2,1,0.1,1.9,0.6,2.6c0.4,0.5,1.2,1.1,2.7,1.1h2.6
				c2.2,0,3.8-1.3,4.1-3.3l1.2-7.3c0.3-2.3-0.8-4-3.1-4.3l-4.3-0.7L87.9,216L87.9,216z M88.4,228.8c-0.1,0-0.2,0-0.2-0.1
				c0,0-0.1-0.1,0-0.2l0.6-4c0.1-0.3,0.4-0.6,0.7-0.6h2.9l-0.7,4.3c-0.1,0.3-0.4,0.6-0.7,0.6H88.4L88.4,228.8z"/>
		</g>
		<g>
			<path class="st2" d="M98.6,231.1c-1,0-1.8-0.3-2.3-0.9c-0.5-0.5-0.6-1.3-0.5-2.1l0.8-4.9c0.3-1.8,1.7-2.9,3.6-2.9h2.3
				c1,0,1.8,0.3,2.3,0.9c0.5,0.5,0.6,1.3,0.5,2.1l-0.1,0.8c-0.3,1.8-1.7,2.9-3.6,2.9h-3.3l-0.2,1.2c0,0.3,0,0.5,0.1,0.6
				c0.1,0.2,0.3,0.2,0.6,0.2h5.2l-0.3,2H98.6z M101.7,225c0.6,0,1.1-0.5,1.2-1l0.1-0.8c0-0.3,0-0.5-0.2-0.6
				c-0.1-0.2-0.3-0.2-0.6-0.2H100c-0.6,0-1.1,0.5-1.2,1l-0.3,1.7H101.7z"/>
			<path class="st3" d="M102.5,220.8c1.8,0,2.6,1,2.4,2.5l-0.1,0.8c-0.2,1.5-1.4,2.5-3.1,2.5h-3.7l-0.3,1.6
				c-0.1,0.8,0.4,1.5,1.2,1.5h4.7l-0.1,1h-4.7c-1.8,0-2.6-1-2.4-2.5l0.8-4.9c0.2-1.5,1.4-2.5,3.1-2.5H102.5 M98,225.5h3.7
				c0.8,0,1.6-0.6,1.7-1.5l0.1-0.8c0.1-0.8-0.4-1.5-1.2-1.5H100c-0.8,0-1.6,0.6-1.7,1.5L98,225.5 M102.5,219.8h-2.3
				c-2.2,0-3.8,1.3-4.1,3.3l-0.8,4.9c-0.2,1,0.1,1.9,0.6,2.5c0.4,0.5,1.2,1.1,2.7,1.1h4.7h0.9l0.1-0.9l0.1-1l0.2-1.1h-1.2h-4.7
				c-0.1,0-0.2,0-0.2-0.1c0,0-0.1-0.1,0-0.2l0.1-0.8h2.9c2.2,0,3.8-1.3,4.1-3.3l0.1-0.8c0.2-1-0.1-1.9-0.6-2.5
				C104.8,220.4,104,219.8,102.5,219.8L102.5,219.8z M99.2,224.5l0.2-1.1c0.1-0.3,0.4-0.6,0.7-0.6h2.3c0.1,0,0.2,0,0.2,0.1
				c0,0,0.1,0.1,0,0.2l-0.1,0.8c-0.1,0.3-0.4,0.6-0.7,0.6H99.2L99.2,224.5z"/>
		</g>
		<g>
			<path class="st2" d="M105.1,234.2l2.2-13.8h1.8l0,0.5c0.6-0.5,1.3-0.7,2-0.7h1.9c1,0,1.8,0.3,2.3,0.9c0.5,0.5,0.6,1.3,0.5,2.1
				l-0.8,4.9c-0.3,1.8-1.7,2.9-3.6,2.9h-3.5l-0.5,3.1H105.1z M111.6,229.1c0.6,0,1.1-0.5,1.2-1l0.8-4.9c0-0.3,0-0.5-0.2-0.6
				c-0.1-0.2-0.3-0.2-0.6-0.2h-1.9c-0.6,0-1,0.4-1.3,0.7c-0.2,0.2-0.3,0.4-0.5,0.7l-0.9,5.5H111.6z"/>
			<path class="st3" d="M113,220.8c1.8,0,2.6,1,2.4,2.5l-0.8,4.9c-0.2,1.5-1.4,2.5-3.1,2.5h-3.9l-0.5,3.1h-1.3l2-12.8h0.8l0,1.3h0.1
				c0.2-0.3,0.4-0.5,0.6-0.7c0.4-0.4,1-0.7,1.8-0.7H113 M107.6,229.6h3.9c0.8,0,1.6-0.6,1.7-1.5l0.8-4.9c0.1-0.8-0.4-1.5-1.2-1.5
				h-1.9c-0.7,0-1.3,0.4-1.7,0.9c-0.2,0.3-0.4,0.5-0.6,0.9L107.6,229.6 M113,219.8h-1.9c-0.5,0-1,0.1-1.5,0.3l0-0.1h-1h-0.8h-0.9
				l-0.1,0.8l-2,12.8l-0.2,1.2h1.2h1.3h0.9l0.1-0.8l0.4-2.3h3.1c2.2,0,3.8-1.3,4.1-3.3l0.8-4.9c0.2-1-0.1-1.9-0.6-2.6
				C115.3,220.4,114.5,219.8,113,219.8L113,219.8z M109.6,223.8c0.1-0.2,0.2-0.4,0.4-0.5c0.2-0.2,0.5-0.5,0.9-0.5h1.9
				c0.1,0,0.2,0,0.2,0.1c0,0,0.1,0.1,0,0.2l-0.8,4.9c-0.1,0.3-0.4,0.6-0.7,0.6h-2.8L109.6,223.8L109.6,223.8z"/>
		</g>
		<g>
			<path class="st2" d="M126.3,231.1l1.7-10.7h2.3l-1.7,10.7H126.3z M116.3,231.1l1.7-10.7h2.3l-0.5,3.5h3.1c1,0,1.8,0.3,2.3,0.9
				c0.5,0.5,0.6,1.3,0.5,2.1l-0.2,1.3c-0.3,1.8-1.7,2.9-3.6,2.9H116.3z M122,229.1c0.6,0,1.1-0.5,1.2-1l0.2-1.3c0-0.3,0-0.5-0.2-0.6
				c-0.1-0.2-0.3-0.2-0.6-0.2h-3.2l-0.5,3.2H122z"/>
			<path class="st3" d="M129.7,221l-1.5,9.7h-1.3l1.5-9.7H129.7 M119.7,221l-0.5,3.5h3.7c1.8,0,2.6,1,2.4,2.5l-0.2,1.3
				c-0.2,1.5-1.4,2.5-3.1,2.5h-4.9l1.5-9.7H119.7 M118.3,229.6h3.7c0.8,0,1.6-0.6,1.7-1.5l0.2-1.3c0.1-0.8-0.4-1.5-1.2-1.5H119
				L118.3,229.6 M130.8,220h-1.2h-1.3h-0.9l-0.1,0.8l-1.5,9.7l-0.2,1.2h1.2h1.3h0.9l0.1-0.8l1.5-9.7L130.8,220L130.8,220z
				 M120.9,220h-1.2h-1.3h-0.9l-0.1,0.8l-1.5,9.7l-0.2,1.2h1.2h4.9c2.2,0,3.8-1.3,4.1-3.3l0.2-1.3c0.2-1,0-1.9-0.6-2.5
				c-0.4-0.5-1.2-1.1-2.7-1.1h-2.5l0.4-2.3L120.9,220L120.9,220z M119.9,226.4h2.8c0.1,0,0.2,0,0.2,0.1c0,0,0.1,0.1,0,0.2l-0.2,1.3
				c-0.1,0.3-0.4,0.6-0.7,0.6h-2.5L119.9,226.4L119.9,226.4z"/>
		</g>
		<g>
			<path class="st2" d="M135.8,231.1l1.7-10.7h5.2c1,0,1.8,0.3,2.3,0.9c0.5,0.5,0.6,1.3,0.5,2.1l-0.1,0.3c-0.1,0.7-0.5,1.4-1.1,1.8
				c0,0,0,0,0.1,0c0.7,0.5,1,1.2,0.9,2.1l-0.1,0.5c-0.3,1.8-1.7,2.9-3.6,2.9H135.8z M141.7,229.1c0.6,0,1.1-0.5,1.2-1l0.1-0.5
				c0-0.3,0-0.5-0.2-0.6c-0.1-0.2-0.3-0.2-0.6-0.2h-3.5l-0.4,2.4H141.7z M141.9,224.7c0.6,0,1.1-0.5,1.2-1l0.1-0.4
				c0-0.3,0-0.5-0.1-0.6c-0.1-0.2-0.3-0.2-0.6-0.2h-3l-0.4,2.3H141.9z"/>
			<path class="st3" d="M142.6,221c1.8,0,2.6,1,2.4,2.5l-0.1,0.3c-0.1,0.7-0.5,1.2-0.9,1.5c-0.2,0.2-0.5,0.3-0.7,0.4l0,0.1
				c0.3,0.1,0.6,0.2,0.9,0.4c0.4,0.3,0.8,0.8,0.7,1.6l-0.1,0.5c-0.2,1.5-1.4,2.5-3.1,2.5h-5.2l1.5-9.7H142.6 M138.5,225.2h3.5
				c0.8,0,1.6-0.6,1.7-1.5l0.1-0.4c0.1-0.8-0.4-1.5-1.2-1.5H139L138.5,225.2 M137.8,229.6h3.9c0.8,0,1.6-0.6,1.7-1.5l0.1-0.5
				c0.1-0.8-0.4-1.5-1.2-1.5h-3.9L137.8,229.6 M142.6,220h-4.7H137l-0.1,0.8l-1.5,9.7l-0.2,1.2h1.2h5.2c2.2,0,3.8-1.3,4.1-3.3
				l0.1-0.5c0.1-0.9-0.1-1.7-0.7-2.2c0.4-0.5,0.7-1,0.8-1.7l0.1-0.4c0.2-1-0.1-1.9-0.6-2.5C144.9,220.5,144.1,220,142.6,220
				L142.6,220z M139.9,223h2.6c0.1,0,0.2,0,0.2,0.1c0,0,0.1,0.1,0,0.2l-0.1,0.4c-0.1,0.3-0.4,0.6-0.7,0.6h-2.3L139.9,223L139.9,223z
				 M139.2,227.3h3.1c0.1,0,0.2,0,0.2,0.1c0,0,0.1,0.1,0,0.2l-0.1,0.5c-0.1,0.3-0.4,0.6-0.7,0.6H139L139.2,227.3L139.2,227.3z"/>
		</g>
		<g>
			<path class="st2" d="M154.6,231.3c-1,0-1.8-0.3-2.3-0.9c-0.5-0.5-0.6-1.3-0.5-2.1l0.8-5.1c0.3-1.8,1.7-2.9,3.6-2.9h2.7
				c1,0,1.8,0.3,2.3,0.9c0.5,0.5,0.6,1.3,0.5,2.1l-0.8,5.1c-0.3,1.8-1.7,2.9-3.6,2.9H154.6z M156,222.3c-0.6,0-1.1,0.5-1.2,1
				l-0.8,5.1c0,0.2,0,0.5,0.2,0.6c0.1,0.2,0.3,0.2,0.6,0.2h2.7c0.6,0,1.1-0.5,1.2-1l0.8-5.1c0-0.3,0-0.5-0.2-0.6
				c-0.1-0.2-0.3-0.2-0.6-0.2H156z"/>
			<path class="st3" d="M158.9,220.8c1.8,0,2.6,1,2.4,2.5l-0.8,5.1c-0.2,1.5-1.4,2.5-3.1,2.5h-2.7c-1.8,0-2.6-1-2.4-2.5l0.8-5.1
				c0.2-1.5,1.4-2.5,3.1-2.5H158.9 M154.8,229.8h2.7c0.8,0,1.6-0.6,1.7-1.5l0.8-5.1c0.1-0.8-0.4-1.5-1.2-1.5H156
				c-0.8,0-1.6,0.6-1.7,1.5l-0.8,5.1C153.4,229.2,153.9,229.8,154.8,229.8 M158.9,219.8h-2.7c-2.2,0-3.8,1.3-4.1,3.3l-0.8,5.1
				c-0.2,1,0.1,1.9,0.6,2.6c0.4,0.5,1.2,1.1,2.7,1.1h2.7c2.2,0,3.8-1.3,4.1-3.3l0.8-5.1c0.2-1-0.1-1.9-0.6-2.6
				C161.2,220.4,160.4,219.8,158.9,219.8L158.9,219.8z M154.8,228.8c-0.1,0-0.2,0-0.2-0.1c0,0-0.1-0.1,0-0.2l0.8-5.1
				c0.1-0.3,0.4-0.6,0.7-0.6h2.7c0.1,0,0.2,0,0.2,0.1c0,0,0.1,0.1,0,0.2l-0.8,5.1c-0.1,0.3-0.4,0.6-0.7,0.6H154.8L154.8,228.8z"/>
		</g>
		<g>
			<path class="st2" d="M165.5,231.3c-1,0-1.8-0.3-2.3-0.9c-0.5-0.5-0.6-1.3-0.5-2.1l1.2-7.3c0.3-1.9,1.7-3.3,3.6-3.6l5.5-0.8l0,2
				l-5.4,0.8c-0.6,0.1-1.4,0.5-1.6,1.8l0,0.2h3.5c1,0,1.8,0.3,2.3,0.9c0.5,0.5,0.6,1.3,0.5,2.1l-0.6,4c-0.3,1.8-1.7,2.9-3.6,2.9
				H165.5z M164.9,228.4c0,0.2,0,0.5,0.2,0.6c0.1,0.2,0.3,0.2,0.6,0.2h2.6c0.6,0,1.1-0.5,1.2-1l0.6-4c0-0.3,0-0.5-0.2-0.6
				c-0.1-0.2-0.3-0.2-0.6-0.2h-3.7L164.9,228.4z"/>
			<path class="st3" d="M172.5,217.1l0,1l-4.9,0.7c-0.9,0.1-1.8,0.8-2,2.2l-0.1,0.8h4.1c1.8,0,2.6,1,2.3,2.5l-0.6,4
				c-0.2,1.5-1.4,2.5-3.1,2.5h-2.6c-1.8,0-2.6-1-2.4-2.5l1.2-7.3c0.3-1.8,1.6-2.9,3.2-3.2L172.5,217.1 M165.6,229.8h2.6
				c0.8,0,1.6-0.6,1.7-1.5l0.6-4c0.1-0.8-0.4-1.5-1.2-1.5h-4.1l-0.9,5.5C164.3,229.2,164.8,229.8,165.6,229.8 M173.4,216l-1.1,0.2
				l-5,0.7c-2.2,0.4-3.8,1.9-4.1,4l-1.2,7.3c-0.2,1,0.1,1.9,0.6,2.6c0.4,0.5,1.2,1.1,2.7,1.1h2.6c2.2,0,3.8-1.3,4.1-3.3l0.6-4
				c0.2-1,0-1.9-0.6-2.5c-0.4-0.5-1.2-1.1-2.7-1.1h-2.9c0.2-0.6,0.5-0.9,1.1-1l4.9-0.7l0.9-0.1l0-0.9l0-1L173.4,216L173.4,216z
				 M166.1,223.9h3.3c0.1,0,0.2,0,0.2,0.1c0,0,0.1,0.1,0,0.2l-0.6,4c-0.1,0.3-0.4,0.6-0.7,0.6h-2.6c-0.1,0-0.2,0-0.2-0.1
				c0,0-0.1-0.1,0-0.2L166.1,223.9L166.1,223.9z"/>
		</g>
		<g>
			<path class="st2" d="M171.8,231.3l0.3-2h0.8c0.7,0,1-0.7,1.1-1.2l1.9-7.7h7.6l-1.7,10.7h-2.3l1.4-8.7h-3.2l-1.5,5.9
				c-0.4,1.8-1.8,2.9-3.5,2.9H171.8z"/>
			<path class="st3" d="M183,221l-1.5,9.7h-1.3l1.4-8.7h-4.2l-1.6,6.3c-0.4,1.6-1.5,2.6-3,2.6h-0.4l0.2-1h0.4c0.7,0,1.3-0.5,1.6-1.6
				l1.8-7.3H183 M184.2,220H183h-6.7h-0.8l-0.2,0.8l-1.8,7.3c-0.1,0.3-0.3,0.8-0.6,0.8h-0.4h-0.8l-0.1,0.8l-0.2,1l-0.2,1.2h1.2h0.4
				c2,0,3.5-1.3,4-3.3l1.4-5.5h2.2l-1.2,7.5l-0.2,1.2h1.2h1.3h0.9l0.1-0.8l1.5-9.7L184.2,220L184.2,220z"/>
		</g>
		<g>
			<path class="st2" d="M186.9,231.3c-1,0-1.8-0.3-2.3-0.9c-0.5-0.5-0.6-1.3-0.5-2.1l0.8-4.9c0.3-1.8,1.7-2.9,3.6-2.9h5.8l-1.7,10.7
				h-1.8l0-0.5c-0.6,0.5-1.3,0.7-2,0.7H186.9z M188.3,222.5c-0.6,0-1.1,0.5-1.2,1l-0.8,4.9c0,0.2,0,0.5,0.2,0.6
				c0.1,0.2,0.3,0.2,0.6,0.2h1.9c0.6,0,1-0.4,1.3-0.7c0.2-0.2,0.3-0.4,0.5-0.7l0.9-5.4H188.3z"/>
			<path class="st3" d="M193.7,221l-1.5,9.7h-0.8l0-1.3h-0.1c-0.2,0.3-0.4,0.5-0.6,0.7c-0.4,0.4-1,0.7-1.8,0.7h-1.9
				c-1.8,0-2.6-1-2.4-2.5l0.8-4.9c0.2-1.5,1.4-2.5,3.1-2.5H193.7 M192.2,222h-3.9c-0.8,0-1.6,0.6-1.7,1.5l-0.8,4.9
				c-0.1,0.8,0.4,1.5,1.2,1.5h1.9c0.7,0,1.3-0.4,1.7-0.9c0.2-0.3,0.4-0.5,0.6-0.9L192.2,222 M194.8,220h-1.2h-5.2
				c-2.2,0-3.8,1.3-4.1,3.3l-0.8,4.9c-0.2,1,0.1,1.9,0.6,2.6c0.4,0.5,1.2,1.1,2.7,1.1h1.9c0.5,0,1-0.1,1.5-0.3l0,0.1h1h0.8h0.9
				l0.1-0.8l1.5-9.7L194.8,220L194.8,220z M187.1,228.8c-0.1,0-0.2,0-0.2-0.1c0,0-0.1-0.1,0-0.2l0.8-4.9c0.1-0.3,0.4-0.6,0.7-0.6
				h2.8l-0.8,4.8c-0.1,0.2-0.3,0.4-0.4,0.6c-0.3,0.3-0.6,0.5-0.9,0.5H187.1L187.1,228.8z"/>
		</g>
		<g>
			<path class="st2" d="M197.6,231.1c-1,0-1.8-0.3-2.3-0.9c-0.5-0.5-0.6-1.3-0.5-2.1l0.7-4.7c0.3-1.8,1.7-2.9,3.6-2.9h5.1l-0.2,1.4
				l-0.7,0.6H199c-0.6,0-1.1,0.5-1.2,1l-0.7,4.7c0,0.3,0,0.5,0.1,0.6c0.1,0.2,0.3,0.2,0.6,0.2h5.1l-0.3,2H197.6z"/>
			<path class="st3" d="M203.7,221l-0.1,0.6l-0.4,0.4H199c-0.8,0-1.6,0.6-1.7,1.5l-0.7,4.7c-0.1,0.8,0.4,1.5,1.2,1.5h4.6l-0.1,1
				h-4.6c-1.8,0-2.6-1-2.4-2.5l0.7-4.7c0.2-1.5,1.4-2.5,3.1-2.5H203.7 M204.9,220h-1.2h-4.6c-2.2,0-3.8,1.3-4.1,3.3l-0.7,4.8
				c-0.2,1,0.1,1.9,0.6,2.5c0.4,0.5,1.2,1.1,2.7,1.1h4.6h0.9l0.1-0.9l0.1-1l0.2-1.1h-1.2h-4.6c-0.1,0-0.2,0-0.2-0.1
				c0,0-0.1-0.1,0-0.2l0.7-4.7c0.1-0.3,0.4-0.6,0.7-0.6h4.2h0.4l0.3-0.2l0.4-0.4l0.3-0.2l0.1-0.4l0.1-0.6L204.9,220L204.9,220z"/>
		</g>
		<g>
			<path class="st2" d="M215.8,231.1l1.3-8c0-0.3,0-0.5-0.2-0.6c-0.1-0.2-0.3-0.2-0.6-0.2h-1.8c-0.6,0-1.1,0.5-1.2,1l-1.2,7.8h-2.3
				l1.3-8c0-0.3,0-0.5-0.2-0.6c-0.1-0.2-0.3-0.2-0.6-0.2H209c-0.6,0-1,0.4-1.3,0.7c-0.2,0.2-0.3,0.4-0.5,0.7l-1.2,7.5h-2.3l1.7-10.7
				h1.8l0,0.5c0.6-0.5,1.3-0.7,2-0.7h1.3c1,0,1.6,0.4,1.9,0.8c0,0,0.1,0.1,0.1,0.1c0.1-0.1,0.1-0.1,0.2-0.2c0.4-0.4,1.1-0.8,2-0.8
				h1.8c1,0,1.8,0.3,2.3,0.9c0.5,0.5,0.6,1.3,0.5,2.1l-1.2,7.8H215.8z"/>
			<path class="st3" d="M216.4,220.8c1.8,0,2.6,1,2.4,2.5l-1.2,7.4h-1.3l1.2-7.4c0.1-0.8-0.4-1.5-1.2-1.5h-1.8
				c-0.8,0-1.6,0.6-1.7,1.5l-1.2,7.4h-1.3l1.2-7.4c0.1-0.8-0.4-1.5-1.2-1.5H209c-0.7,0-1.3,0.4-1.7,0.9c-0.2,0.3-0.4,0.5-0.6,0.9
				l-1.1,7.1h-1.3l1.5-9.7h0.8l0,1.3h0.1c0.2-0.3,0.4-0.5,0.6-0.7c0.4-0.4,1-0.7,1.8-0.7h1.3c0.8,0,1.3,0.3,1.5,0.6
				c0.2,0.2,0.3,0.4,0.4,0.6h0.1c0.1-0.2,0.3-0.4,0.5-0.6c0.4-0.3,0.9-0.6,1.7-0.6H216.4 M216.4,219.8h-1.8c-0.9,0-1.7,0.4-2.1,0.7
				c-0.4-0.4-1.1-0.7-2.1-0.7h-1.3c-0.5,0-1,0.1-1.5,0.3l0-0.1h-1h-0.8H205l-0.1,0.8l-1.5,9.7l-0.2,1.2h1.2h1.3h0.9l0.1-0.8l1.1-6.9
				c0.1-0.2,0.2-0.4,0.4-0.5c0.2-0.2,0.5-0.5,0.9-0.5h1.3c0.1,0,0.2,0,0.2,0.1c0,0,0.1,0.1,0,0.2l-1.2,7.4l-0.2,1.2h1.2h1.3h0.9
				l0.1-0.8l1.2-7.4c0.1-0.3,0.4-0.6,0.7-0.6h1.8c0.1,0,0.2,0,0.2,0.1c0,0,0.1,0.1,0,0.2l-1.2,7.4l-0.2,1.2h1.2h1.3h0.9l0.1-0.8
				l1.2-7.4c0.2-1-0.1-1.9-0.6-2.6C218.7,220.4,217.9,219.8,216.4,219.8L216.4,219.8z"/>
		</g>
		<g>
			<path class="st2" d="M223.3,231.3c-1,0-1.8-0.3-2.3-0.9c-0.5-0.5-0.6-1.3-0.5-2.1l1.2-7.8h2.3l-1.3,8c0,0.3,0,0.5,0.2,0.6
				c0.1,0.2,0.3,0.2,0.6,0.2h2c0.6,0,1-0.4,1.3-0.7c0.2-0.2,0.3-0.4,0.5-0.7l1.2-7.5h2.3l-1.7,10.7h-1.8l0-0.5
				c-0.6,0.5-1.3,0.7-2,0.7H223.3z"/>
			<path class="st3" d="M230.1,221l-1.5,9.7h-0.8l0-1.3h-0.1c-0.2,0.3-0.4,0.5-0.6,0.7c-0.4,0.4-1,0.7-1.8,0.7h-2
				c-1.8,0-2.6-1-2.4-2.5l1.2-7.4h1.3l-1.2,7.4c-0.1,0.8,0.4,1.5,1.2,1.5h2c0.7,0,1.3-0.4,1.7-0.9c0.2-0.3,0.4-0.5,0.6-0.9l1.1-7.1
				H230.1 M231.3,220h-1.2h-1.3H228l-0.1,0.8l-1.1,6.9c-0.1,0.2-0.3,0.4-0.4,0.6c-0.3,0.3-0.6,0.5-0.9,0.5h-2c-0.1,0-0.2,0-0.2-0.1
				c0,0-0.1-0.1,0-0.2l1.2-7.4l0.2-1.2h-1.2h-1.3h-0.9l-0.1,0.8l-1.2,7.4c-0.2,1,0.1,1.9,0.6,2.5c0.4,0.5,1.2,1.1,2.7,1.1h2
				c0.5,0,1-0.1,1.5-0.3l0,0.1h1h0.8h0.9l0.1-0.8l1.5-9.7L231.3,220L231.3,220z"/>
		</g>
		<g>
			<path class="st2" d="M243,231.1l1.3-8c0-0.3,0-0.5-0.2-0.6c-0.1-0.2-0.3-0.2-0.6-0.2h-2c-0.6,0-1,0.4-1.3,0.7
				c-0.2,0.2-0.3,0.4-0.5,0.7l-1.2,7.5h-2.3l1.7-10.7h1.8l0,0.5c0.6-0.5,1.3-0.7,2-0.7h2c1,0,1.8,0.3,2.3,0.9
				c0.5,0.5,0.6,1.3,0.5,2.1l-1.2,7.8H243z"/>
			<path class="st3" d="M243.7,220.8c1.8,0,2.6,1,2.4,2.5l-1.2,7.4h-1.3l1.2-7.4c0.1-0.8-0.4-1.5-1.2-1.5h-2c-0.7,0-1.3,0.4-1.7,0.9
				c-0.2,0.3-0.4,0.5-0.6,0.9l-1.1,7.1h-1.3l1.5-9.7h0.8l0,1.3h0.1c0.2-0.3,0.4-0.5,0.6-0.7c0.4-0.4,1-0.7,1.8-0.7H243.7
				 M243.7,219.8h-2c-0.5,0-1,0.1-1.5,0.3l0-0.1h-1h-0.8h-0.9l-0.1,0.8l-1.5,9.7l-0.2,1.2h1.2h1.3h0.9l0.1-0.8l1.1-6.9
				c0.1-0.2,0.2-0.4,0.4-0.5c0.2-0.2,0.5-0.5,0.9-0.5h2c0.1,0,0.2,0,0.2,0.1c0,0,0.1,0.1,0,0.2l-1.2,7.4l-0.2,1.2h1.2h1.3h0.9
				l0.1-0.8l1.2-7.4c0.2-1-0.1-1.9-0.6-2.6C246,220.4,245.1,219.8,243.7,219.8L243.7,219.8z"/>
		</g>
		<g>
			<path class="st2" d="M250.3,231.3c-1,0-1.8-0.3-2.3-0.9c-0.5-0.5-0.6-1.3-0.5-2.1l0.8-5.1c0.3-1.8,1.7-2.9,3.6-2.9h2.7
				c1,0,1.8,0.3,2.3,0.9c0.5,0.5,0.6,1.3,0.5,2.1l-0.8,5.1c-0.3,1.8-1.7,2.9-3.6,2.9H250.3z M251.7,222.3c-0.6,0-1.1,0.5-1.2,1
				l-0.8,5.1c0,0.2,0,0.5,0.2,0.6c0.1,0.2,0.3,0.2,0.6,0.2h2.7c0.6,0,1.1-0.5,1.2-1l0.8-5.1c0-0.3,0-0.5-0.2-0.6
				c-0.1-0.2-0.3-0.2-0.6-0.2H251.7z"/>
			<path class="st3" d="M254.6,220.8c1.8,0,2.6,1,2.4,2.5l-0.8,5.1c-0.2,1.5-1.4,2.5-3.1,2.5h-2.7c-1.8,0-2.6-1-2.4-2.5l0.8-5.1
				c0.2-1.5,1.4-2.5,3.1-2.5H254.6 M250.5,229.8h2.7c0.8,0,1.6-0.6,1.7-1.5l0.8-5.1c0.1-0.8-0.4-1.5-1.2-1.5h-2.7
				c-0.8,0-1.6,0.6-1.7,1.5l-0.8,5.1C249.1,229.2,249.6,229.8,250.5,229.8 M254.6,219.8h-2.7c-2.2,0-3.8,1.3-4.1,3.3l-0.8,5.1
				c-0.2,1,0.1,1.9,0.6,2.6c0.4,0.5,1.2,1.1,2.7,1.1h2.7c2.2,0,3.8-1.3,4.1-3.3l0.8-5.1c0.2-1-0.1-1.9-0.6-2.6
				C256.9,220.4,256.1,219.8,254.6,219.8L254.6,219.8z M250.5,228.8c-0.1,0-0.2,0-0.2-0.1c0,0-0.1-0.1,0-0.2l0.8-5.1
				c0.1-0.3,0.4-0.6,0.7-0.6h2.7c0.1,0,0.2,0,0.2,0.1c0,0,0.1,0.1,0,0.2l-0.8,5.1c-0.1,0.3-0.4,0.6-0.7,0.6H250.5L250.5,228.8z"/>
		</g>
		<g>
			<path class="st2" d="M261.1,231.1c-1,0-1.8-0.3-2.3-0.9c-0.5-0.5-0.6-1.3-0.5-2.1l0.7-4.7c0.3-1.8,1.7-2.9,3.6-2.9h5.1l-0.2,1.4
				l-0.7,0.6h-4.4c-0.6,0-1.1,0.5-1.2,1l-0.7,4.7c0,0.3,0,0.5,0.2,0.6c0.1,0.2,0.3,0.2,0.6,0.2h5.1l-0.3,2H261.1z"/>
			<path class="st3" d="M267.2,221l-0.1,0.6l-0.4,0.4h-4.2c-0.8,0-1.6,0.6-1.7,1.5l-0.7,4.7c-0.1,0.8,0.4,1.5,1.2,1.5h4.6l-0.1,1
				h-4.6c-1.8,0-2.6-1-2.4-2.5l0.7-4.7c0.2-1.5,1.4-2.5,3.1-2.5H267.2 M268.3,220h-1.2h-4.6c-2.2,0-3.8,1.3-4.1,3.3l-0.7,4.8
				c-0.2,1,0.1,1.9,0.6,2.5c0.4,0.5,1.2,1.1,2.7,1.1h4.6h0.9l0.1-0.9l0.1-1l0.2-1.1h-1.2h-4.6c-0.1,0-0.2,0-0.2-0.1
				c0,0-0.1-0.1,0-0.2l0.7-4.7c0.1-0.3,0.4-0.6,0.7-0.6h4.2h0.4l0.3-0.2l0.4-0.4l0.3-0.2l0.1-0.4l0.1-0.6L268.3,220L268.3,220z"/>
		</g>
		<g>
			<path class="st2" d="M266,231.3l0.3-2h0.8c0.7,0,1-0.7,1.1-1.2l1.9-7.7h7.6l-1.7,10.7h-2.3l1.4-8.7h-3.2l-1.5,5.9
				c-0.4,1.8-1.8,2.9-3.5,2.9H266z"/>
			<path class="st3" d="M277.1,221l-1.5,9.7h-1.3l1.4-8.7h-4.2l-1.6,6.3c-0.4,1.6-1.5,2.6-3,2.6h-0.4l0.2-1h0.4
				c0.7,0,1.3-0.5,1.6-1.6l1.8-7.3H277.1 M278.3,220h-1.2h-6.7h-0.8l-0.2,0.8l-1.8,7.3c-0.1,0.3-0.3,0.8-0.6,0.8h-0.4h-0.9l-0.1,0.8
				l-0.2,1l-0.2,1.2h1.2h0.4c2,0,3.5-1.3,4-3.3l1.4-5.5h2.2l-1.2,7.5l-0.2,1.2h1.2h1.3h0.9l0.1-0.8l1.5-9.7L278.3,220L278.3,220z"/>
		</g>
		<g>
			<path class="st2" d="M281.1,231.1c-1,0-1.8-0.3-2.3-0.9c-0.5-0.5-0.6-1.3-0.5-2.1l0.8-4.9c0.3-1.8,1.7-2.9,3.6-2.9h2.3
				c1,0,1.8,0.3,2.3,0.9c0.5,0.5,0.6,1.3,0.5,2.1l-0.1,0.8c-0.3,1.8-1.7,2.9-3.6,2.9h-3.3l-0.2,1.2c0,0.3,0,0.5,0.2,0.6
				c0.1,0.2,0.3,0.2,0.6,0.2h5.2l-0.3,2H281.1z M284.2,225c0.6,0,1.1-0.5,1.2-1l0.1-0.8c0-0.3,0-0.5-0.2-0.6
				c-0.1-0.2-0.3-0.2-0.6-0.2h-2.3c-0.6,0-1.1,0.5-1.2,1L281,225H284.2z"/>
			<path class="st3" d="M284.9,220.8c1.8,0,2.6,1,2.4,2.5l-0.1,0.8c-0.2,1.5-1.4,2.5-3.1,2.5h-3.7l-0.3,1.6
				c-0.1,0.8,0.4,1.5,1.2,1.5h4.7l-0.1,1h-4.7c-1.8,0-2.6-1-2.4-2.5l0.8-4.9c0.2-1.5,1.4-2.5,3.1-2.5H284.9 M280.5,225.5h3.7
				c0.8,0,1.6-0.6,1.7-1.5l0.1-0.8c0.1-0.8-0.4-1.5-1.2-1.5h-2.3c-0.8,0-1.6,0.6-1.7,1.5L280.5,225.5 M284.9,219.8h-2.3
				c-2.2,0-3.8,1.3-4.1,3.3l-0.8,4.9c-0.2,1,0.1,1.9,0.6,2.5c0.4,0.5,1.2,1.1,2.7,1.1h4.7h0.9l0.1-0.9l0.1-1l0.2-1.1h-1.2h-4.7
				c-0.1,0-0.2,0-0.2-0.1c0,0-0.1-0.1,0-0.2l0.1-0.8h2.9c2.2,0,3.8-1.3,4.1-3.3l0.1-0.8c0.2-1-0.1-1.9-0.6-2.5
				C287.2,220.4,286.4,219.8,284.9,219.8L284.9,219.8z M281.6,224.5l0.2-1.1c0.1-0.3,0.4-0.6,0.7-0.6h2.3c0.1,0,0.2,0,0.2,0.1
				c0,0,0.1,0.1,0,0.2l-0.1,0.8c-0.1,0.3-0.4,0.6-0.7,0.6H281.6L281.6,224.5z"/>
		</g>
		<g>
			<path class="st2" d="M287.7,234.2l0.3-2h1.3c0.6,0,1.1-0.5,1.3-0.9l0.3-0.6l-2.5-9.1l0.2-1.2h2l1.9,7.6l3.7-7.6h2.1l-0.2,1.3
				l-5.2,10c-0.9,1.6-2.1,2.5-3.7,2.5H287.7z"/>
			<path class="st3" d="M297.8,221l-0.1,0.6l-5.2,10c-0.7,1.3-1.7,2.2-3.3,2.2h-0.9l0.1-1h0.9c0.7,0,1.4-0.5,1.8-1.2l0.4-0.7l0-0.2
				l-2.5-9.1l0.1-0.6h1.2l2.1,8.4h0.1l4.1-8.4H297.8 M298.9,220h-1.2h-1.2H296l-0.3,0.6l-3,6.1l-1.5-5.9l-0.2-0.8h-0.8h-1.2h-0.9
				l-0.1,0.9l-0.1,0.6l0,0.2l0.1,0.2l2.4,8.8l-0.2,0.5c-0.2,0.4-0.6,0.7-0.9,0.7h-0.9h-0.9l-0.1,0.9l-0.1,1l-0.2,1.1h1.2h0.9
				c1.8,0,3.2-0.9,4.1-2.7l5.2-10l0.1-0.2l0-0.2l0.1-0.6L298.9,220L298.9,220z"/>
		</g>
		<g>
			<path class="st2" d="M300.9,231.3c-1,0-1.8-0.3-2.3-0.9c-0.5-0.5-0.6-1.3-0.5-2.1l1.2-7.3c0.3-1.9,1.7-3.3,3.6-3.6l5.5-0.8l0,2
				l-5.4,0.8c-0.6,0.1-1.4,0.5-1.6,1.8l0,0.2h3.5c1,0,1.8,0.3,2.3,0.9c0.5,0.5,0.6,1.3,0.5,2.1l-0.6,4c-0.3,1.8-1.7,2.9-3.6,2.9
				H300.9z M300.3,228.4c0,0.2,0,0.5,0.2,0.6c0.1,0.2,0.3,0.2,0.6,0.2h2.6c0.6,0,1.1-0.5,1.2-1l0.6-4c0-0.3,0-0.5-0.1-0.6
				c-0.1-0.2-0.3-0.2-0.6-0.2h-3.7L300.3,228.4z"/>
			<path class="st3" d="M307.9,217.1l0,1l-4.9,0.7c-0.9,0.1-1.8,0.8-2,2.2l-0.1,0.8h4.1c1.8,0,2.6,1,2.3,2.5l-0.6,4
				c-0.2,1.5-1.4,2.5-3.1,2.5h-2.6c-1.8,0-2.6-1-2.4-2.5l1.2-7.3c0.3-1.8,1.6-2.9,3.2-3.2L307.9,217.1 M301.1,229.8h2.6
				c0.8,0,1.6-0.6,1.7-1.5l0.6-4c0.1-0.8-0.4-1.5-1.2-1.5h-4.1l-0.9,5.5C299.7,229.2,300.2,229.8,301.1,229.8 M308.9,216l-1.1,0.2
				l-5,0.7c-2.2,0.4-3.8,1.9-4.1,4l-1.2,7.3c-0.2,1,0.1,1.9,0.6,2.6c0.4,0.5,1.2,1.1,2.7,1.1h2.6c2.2,0,3.8-1.3,4.1-3.3l0.6-4
				c0.2-1,0-1.9-0.6-2.5c-0.4-0.5-1.2-1.1-2.7-1.1H302c0.2-0.6,0.5-0.9,1.1-1l4.9-0.7l0.9-0.1l0-0.9l0-1L308.9,216L308.9,216z
				 M301.5,223.9h3.3c0.1,0,0.2,0,0.2,0.1c0,0,0.1,0.1,0,0.2l-0.6,4c-0.1,0.3-0.4,0.6-0.7,0.6h-2.6c-0.1,0-0.2,0-0.2-0.1
				c0,0-0.1-0.1,0-0.2L301.5,223.9L301.5,223.9z"/>
		</g>
		<g>
			<path class="st2" d="M311.6,231.3c-1,0-1.8-0.3-2.3-0.9c-0.5-0.5-0.6-1.3-0.5-2.1l0.8-5.1c0.3-1.8,1.7-2.9,3.6-2.9h2.7
				c1,0,1.8,0.3,2.3,0.9c0.5,0.5,0.6,1.3,0.5,2.1l-0.8,5.1c-0.3,1.8-1.7,2.9-3.6,2.9H311.6z M313,222.3c-0.6,0-1.1,0.5-1.2,1
				l-0.8,5.1c0,0.2,0,0.5,0.2,0.6c0.1,0.2,0.3,0.2,0.6,0.2h2.7c0.6,0,1.1-0.5,1.2-1l0.8-5.1c0-0.3,0-0.5-0.2-0.6
				c-0.1-0.2-0.3-0.2-0.6-0.2H313z"/>
			<path class="st3" d="M315.9,220.8c1.8,0,2.6,1,2.4,2.5l-0.8,5.1c-0.2,1.5-1.4,2.5-3.1,2.5h-2.7c-1.8,0-2.6-1-2.4-2.5l0.8-5.1
				c0.2-1.5,1.4-2.5,3.1-2.5H315.9 M311.7,229.8h2.7c0.8,0,1.6-0.6,1.7-1.5l0.8-5.1c0.1-0.8-0.4-1.5-1.2-1.5H313
				c-0.8,0-1.6,0.6-1.7,1.5l-0.8,5.1C310.4,229.2,310.9,229.8,311.7,229.8 M315.9,219.8h-2.7c-2.2,0-3.8,1.3-4.1,3.3l-0.8,5.1
				c-0.2,1,0.1,1.9,0.6,2.6c0.4,0.5,1.2,1.1,2.7,1.1h2.7c2.2,0,3.8-1.3,4.1-3.3l0.8-5.1c0.2-1-0.1-1.9-0.6-2.6
				C318.2,220.4,317.4,219.8,315.9,219.8L315.9,219.8z M311.7,228.8c-0.1,0-0.2,0-0.2-0.1c0,0-0.1-0.1,0-0.2l0.8-5.1
				c0.1-0.3,0.4-0.6,0.7-0.6h2.7c0.1,0,0.2,0,0.2,0.1c0,0,0.1,0.1,0,0.2l-0.8,5.1c-0.1,0.3-0.4,0.6-0.7,0.6H311.7L311.7,228.8z"/>
		</g>
		<g>
			<path class="st2" d="M318.8,234.2l2.2-13.8h1.8l0,0.5c0.6-0.5,1.3-0.7,2-0.7h1.9c1,0,1.8,0.3,2.3,0.9c0.5,0.5,0.6,1.3,0.5,2.1
				l-0.8,4.9c-0.3,1.8-1.7,2.9-3.6,2.9h-3.5l-0.5,3.1H318.8z M325.2,229.1c0.6,0,1.1-0.5,1.2-1l0.8-4.9c0-0.3,0-0.5-0.2-0.6
				c-0.1-0.2-0.3-0.2-0.6-0.2h-1.9c-0.6,0-1,0.4-1.3,0.7c-0.2,0.2-0.3,0.4-0.5,0.7l-0.9,5.5H325.2z"/>
			<path class="st3" d="M326.6,220.8c1.8,0,2.6,1,2.4,2.5l-0.8,4.9c-0.2,1.5-1.4,2.5-3.1,2.5h-3.9l-0.5,3.1h-1.3l2-12.8h0.8l0,1.3
				h0.1c0.2-0.3,0.4-0.5,0.6-0.7c0.4-0.4,1-0.7,1.8-0.7H326.6 M321.3,229.6h3.9c0.8,0,1.6-0.6,1.7-1.5l0.8-4.9
				c0.1-0.8-0.4-1.5-1.2-1.5h-1.9c-0.7,0-1.3,0.4-1.7,0.9c-0.2,0.3-0.4,0.5-0.6,0.9L321.3,229.6 M326.6,219.8h-1.9
				c-0.5,0-1,0.1-1.5,0.3l0-0.1h-1h-0.8h-0.9l-0.1,0.8l-2,12.8l-0.2,1.2h1.2h1.3h0.9l0.1-0.8l0.4-2.3h3.1c2.2,0,3.8-1.3,4.1-3.3
				l0.8-4.9c0.2-1-0.1-1.9-0.6-2.6C328.9,220.4,328.1,219.8,326.6,219.8L326.6,219.8z M323.2,223.8c0.1-0.2,0.2-0.4,0.4-0.5
				c0.2-0.2,0.5-0.5,0.9-0.5h1.9c0.1,0,0.2,0,0.2,0.1c0,0,0.1,0.1,0,0.2l-0.8,4.9c-0.1,0.3-0.4,0.6-0.7,0.6h-2.8L323.2,223.8
				L323.2,223.8z"/>
		</g>
		<g>
			<path class="st2" d="M333,231.3c-1,0-1.8-0.3-2.3-0.9c-0.5-0.5-0.6-1.3-0.5-2.1l0.8-5.1c0.3-1.8,1.7-2.9,3.6-2.9h2.7
				c1,0,1.8,0.3,2.3,0.9c0.5,0.5,0.6,1.3,0.5,2.1l-0.8,5.1c-0.3,1.8-1.7,2.9-3.6,2.9H333z M334.5,222.3c-0.6,0-1.1,0.5-1.2,1
				l-0.8,5.1c0,0.2,0,0.5,0.2,0.6c0.1,0.2,0.3,0.2,0.6,0.2h2.7c0.6,0,1.1-0.5,1.2-1l0.8-5.1c0-0.3,0-0.5-0.2-0.6
				c-0.1-0.2-0.3-0.2-0.6-0.2H334.5z"/>
			<path class="st3" d="M337.4,220.8c1.8,0,2.6,1,2.4,2.5l-0.8,5.1c-0.2,1.5-1.4,2.5-3.1,2.5H333c-1.8,0-2.6-1-2.4-2.5l0.8-5.1
				c0.2-1.5,1.4-2.5,3.1-2.5H337.4 M333.2,229.8h2.7c0.8,0,1.6-0.6,1.7-1.5l0.8-5.1c0.1-0.8-0.4-1.5-1.2-1.5h-2.7
				c-0.8,0-1.6,0.6-1.7,1.5l-0.8,5.1C331.8,229.2,332.4,229.8,333.2,229.8 M337.4,219.8h-2.7c-2.2,0-3.8,1.3-4.1,3.3l-0.8,5.1
				c-0.2,1,0.1,1.9,0.6,2.6c0.4,0.5,1.2,1.1,2.7,1.1h2.7c2.2,0,3.8-1.3,4.1-3.3l0.8-5.1c0.2-1-0.1-1.9-0.6-2.6
				C339.7,220.4,338.8,219.8,337.4,219.8L337.4,219.8z M333.2,228.8c-0.1,0-0.2,0-0.2-0.1c0,0-0.1-0.1,0-0.2l0.8-5.1
				c0.1-0.3,0.4-0.6,0.7-0.6h2.7c0.1,0,0.2,0,0.2,0.1c0,0,0.1,0.1,0,0.2l-0.8,5.1c-0.1,0.3-0.4,0.6-0.7,0.6H333.2L333.2,228.8z"/>
		</g>
		<g>
			<path class="st2" d="M346.9,231.1l0.5-3.5h-3.2c-1,0-1.8-0.3-2.4-0.9c-0.5-0.5-0.6-1.3-0.5-2.1l0.7-4.2h2.3l-0.7,4.3
				c0,0.3,0,0.5,0.1,0.6c0.1,0.2,0.3,0.2,0.6,0.2h3.4l0.8-5.2h2.3l-1.7,10.7H346.9z"/>
			<path class="st3" d="M350.3,221l-1.5,9.7h-1.3l0.5-3.5h-3.8c-1.8,0-2.6-1-2.4-2.5l0.6-3.7h1.3l-0.6,3.7c-0.1,0.8,0.4,1.5,1.2,1.5
				h3.8l0.8-5.2H350.3 M351.5,220h-1.2H349h-0.9l-0.1,0.8l-0.7,4.4h-3c-0.1,0-0.2,0-0.2-0.1c0,0-0.1-0.1,0-0.2l0.6-3.7l0.2-1.2h-1.2
				h-1.3h-0.9l-0.1,0.8l-0.6,3.7c-0.2,1,0.1,1.9,0.6,2.5c0.4,0.5,1.2,1.1,2.7,1.1h2.7l-0.4,2.3l-0.2,1.2h1.2h1.3h0.9l0.1-0.8
				l1.5-9.7L351.5,220L351.5,220z"/>
		</g>
		<g>
			<polygon class="st2" points="357.9,231.1 358.6,226.8 354.1,226.8 353.4,231.1 351.1,231.1 352.8,220.5 355.1,220.5 354.4,224.7 
				358.9,224.7 359.5,220.5 361.8,220.5 360.2,231.1 			"/>
			<path class="st3" d="M361.3,221l-1.5,9.7h-1.3l0.7-4.4h-5.5l-0.7,4.4h-1.3l1.5-9.7h1.3l-0.7,4.3h5.5l0.7-4.3H361.3 M362.4,220
				h-1.2H360h-0.9l-0.1,0.8l-0.5,3.4H355l0.5-3.1l0.2-1.2h-1.2h-1.3h-0.9l-0.1,0.8l-1.5,9.7l-0.2,1.2h1.2h1.3h0.9l0.1-0.8l0.6-3.5
				h3.5l-0.5,3.2l-0.2,1.2h1.2h1.3h0.9l0.1-0.8l1.5-9.7L362.4,220L362.4,220z"/>
		</g>
		<g>
			<path class="st2" d="M372,231.1l1.7-10.7h2.3l-1.7,10.7H372z M362.1,231.1l1.7-10.7h2.3l-0.5,3.5h3.1c1,0,1.8,0.3,2.3,0.9
				c0.5,0.5,0.6,1.3,0.5,2.1l-0.2,1.3c-0.3,1.8-1.7,2.9-3.6,2.9H362.1z M367.7,229.1c0.6,0,1.1-0.5,1.2-1l0.2-1.3
				c0-0.3,0-0.5-0.2-0.6c-0.1-0.2-0.3-0.2-0.6-0.2h-3.2l-0.5,3.2H367.7z"/>
			<path class="st3" d="M375.4,221l-1.5,9.7h-1.3l1.5-9.7H375.4 M365.5,221l-0.5,3.5h3.7c1.8,0,2.6,1,2.4,2.5l-0.2,1.3
				c-0.2,1.5-1.4,2.5-3.1,2.5h-4.9l1.5-9.7H365.5 M364.1,229.6h3.7c0.8,0,1.6-0.6,1.7-1.5l0.2-1.3c0.1-0.8-0.4-1.5-1.2-1.5h-3.7
				L364.1,229.6 M376.6,220h-1.2h-1.3h-0.9l-0.1,0.8l-1.5,9.7l-0.2,1.2h1.2h1.3h0.9l0.1-0.8l1.5-9.7L376.6,220L376.6,220z
				 M366.6,220h-1.2h-1.3h-0.9l-0.1,0.8l-1.5,9.7l-0.2,1.2h1.2h4.9c2.2,0,3.8-1.3,4.1-3.3l0.2-1.3c0.2-1,0-1.9-0.6-2.5
				c-0.4-0.5-1.2-1.1-2.7-1.1h-2.5l0.4-2.3L366.6,220L366.6,220z M365.6,226.4h2.8c0.1,0,0.2,0,0.2,0.1c0,0,0.1,0.1,0,0.2l-0.2,1.3
				c-0.1,0.3-0.4,0.6-0.7,0.6h-2.5L365.6,226.4L365.6,226.4z"/>
		</g>
		<g>
			<polygon class="st2" points="382.7,231.1 380.6,227.5 377.3,231.1 375.3,231.1 375.5,229.8 379.4,225.7 377,221.7 377.2,220.5 
				379.1,220.5 381,224.1 384.1,220.5 386.1,220.5 385.9,221.8 382.2,225.9 384.8,229.9 384.6,231.1 			"/>
			<path class="st3" d="M385.5,221l-0.1,0.6l-3.9,4.2l2.7,4.2l-0.1,0.6H383l-2.3-3.9h-0.1l-3.5,3.9h-1.2l0.1-0.6l4-4.2l-2.5-4.2
				l0.1-0.6h1.2l2.1,3.9h0.1l3.4-3.9H385.5 M386.7,220h-1.2h-1.2h-0.5l-0.3,0.3l-2.5,2.9l-1.5-2.7l-0.3-0.5h-0.6h-1.2h-0.9l-0.1,0.9
				l-0.1,0.6l-0.1,0.4l0.2,0.3l2.1,3.5l-3.5,3.6l-0.2,0.2l0,0.3l-0.1,0.6l-0.2,1.1h1.2h1.2h0.4l0.3-0.3l2.7-3l1.6,2.8l0.3,0.5h0.6
				h1.2h0.9l0.1-0.9l0.1-0.6l0.1-0.4l-0.2-0.3l-2.3-3.5l3.3-3.6l0.2-0.2l0-0.3l0.1-0.6L386.7,220L386.7,220z"/>
		</g>
		<g>
			<path class="st2" d="M403,231.1l1.3-8c0-0.3,0-0.5-0.2-0.6c-0.1-0.2-0.3-0.2-0.6-0.2h-1.8c-0.6,0-1.1,0.5-1.2,1l-1.2,7.8H397
				l1.3-8c0-0.3,0-0.5-0.2-0.6c-0.1-0.2-0.3-0.2-0.6-0.2h-1.3c-0.6,0-1,0.4-1.3,0.7c-0.2,0.2-0.3,0.4-0.5,0.7l-1.2,7.5h-2.3
				l1.7-10.7h1.8l0,0.5c0.6-0.5,1.3-0.7,2-0.7h1.3c1,0,1.6,0.4,1.9,0.8c0,0,0.1,0.1,0.1,0.1c0.1-0.1,0.1-0.1,0.2-0.2
				c0.4-0.4,1.1-0.8,2-0.8h1.8c1,0,1.8,0.3,2.3,0.9c0.5,0.5,0.6,1.3,0.5,2.1l-1.2,7.8H403z"/>
			<path class="st3" d="M403.7,220.8c1.8,0,2.6,1,2.4,2.5l-1.2,7.4h-1.3l1.2-7.4c0.1-0.8-0.4-1.5-1.2-1.5h-1.8
				c-0.8,0-1.6,0.6-1.7,1.5l-1.2,7.4h-1.3l1.2-7.4c0.1-0.8-0.4-1.5-1.2-1.5h-1.3c-0.7,0-1.3,0.4-1.7,0.9c-0.2,0.3-0.4,0.5-0.6,0.9
				l-1.1,7.1h-1.3l1.5-9.7h0.8l0,1.3h0.1c0.2-0.3,0.4-0.5,0.6-0.7c0.4-0.4,1-0.7,1.8-0.7h1.3c0.8,0,1.3,0.3,1.5,0.6
				c0.2,0.2,0.3,0.4,0.4,0.6h0.1c0.1-0.2,0.3-0.4,0.5-0.6c0.4-0.3,0.9-0.6,1.7-0.6H403.7 M403.7,219.8h-1.8c-0.9,0-1.7,0.4-2.1,0.7
				c-0.4-0.4-1.1-0.7-2.1-0.7h-1.3c-0.5,0-1,0.1-1.5,0.3l0-0.1h-1H393h-0.9l-0.1,0.8l-1.5,9.7l-0.2,1.2h1.2h1.3h0.9l0.1-0.8l1.1-6.9
				c0.1-0.2,0.2-0.4,0.4-0.5c0.2-0.2,0.5-0.5,0.9-0.5h1.3c0.1,0,0.2,0,0.2,0.1c0,0,0.1,0.1,0,0.2l-1.2,7.4l-0.2,1.2h1.2h1.3h0.9
				l0.1-0.8l1.2-7.4c0.1-0.3,0.4-0.6,0.7-0.6h1.8c0.1,0,0.2,0,0.2,0.1c0,0,0.1,0.1,0,0.2l-1.2,7.4l-0.2,1.2h1.2h1.3h0.9l0.1-0.8
				l1.2-7.4c0.2-1-0.1-1.9-0.6-2.6C406,220.4,405.1,219.8,403.7,219.8L403.7,219.8z"/>
		</g>
		<g>
			<path class="st2" d="M410.3,231.1c-1,0-1.8-0.3-2.3-0.9c-0.5-0.5-0.6-1.3-0.5-2.1l0.8-4.9c0.3-1.8,1.7-2.9,3.6-2.9h2.3
				c1,0,1.8,0.3,2.3,0.9c0.5,0.5,0.6,1.3,0.5,2.1l-0.1,0.8c-0.3,1.8-1.7,2.9-3.6,2.9h-3.3l-0.2,1.2c0,0.3,0,0.5,0.1,0.6
				c0.1,0.2,0.3,0.2,0.6,0.2h5.2l-0.3,2H410.3z M413.4,225c0.6,0,1.1-0.5,1.2-1l0.1-0.8c0-0.3,0-0.5-0.2-0.6
				c-0.1-0.2-0.3-0.2-0.6-0.2h-2.3c-0.6,0-1.1,0.5-1.2,1l-0.3,1.7H413.4z"/>
			<path class="st3" d="M414.2,220.8c1.8,0,2.6,1,2.4,2.5l-0.1,0.8c-0.2,1.5-1.4,2.5-3.1,2.5h-3.7l-0.3,1.6
				c-0.1,0.8,0.4,1.5,1.2,1.5h4.7l-0.1,1h-4.7c-1.8,0-2.6-1-2.4-2.5l0.8-4.9c0.2-1.5,1.4-2.5,3.1-2.5H414.2 M409.7,225.5h3.7
				c0.8,0,1.6-0.6,1.7-1.5l0.1-0.8c0.1-0.8-0.4-1.5-1.2-1.5h-2.3c-0.8,0-1.6,0.6-1.7,1.5L409.7,225.5 M414.2,219.8h-2.3
				c-2.2,0-3.8,1.3-4.1,3.3L407,228c-0.2,1,0.1,1.9,0.6,2.5c0.4,0.5,1.2,1.1,2.7,1.1h4.7h0.9l0.1-0.9l0.1-1l0.2-1.1h-1.2h-4.7
				c-0.1,0-0.2,0-0.2-0.1c0,0-0.1-0.1,0-0.2l0.1-0.8h2.9c2.2,0,3.8-1.3,4.1-3.3l0.1-0.8c0.2-1-0.1-1.9-0.6-2.5
				C416.5,220.4,415.6,219.8,414.2,219.8L414.2,219.8z M410.9,224.5l0.2-1.1c0.1-0.3,0.4-0.6,0.7-0.6h2.3c0.1,0,0.2,0,0.2,0.1
				c0,0,0.1,0.1,0,0.2l-0.1,0.8c-0.1,0.3-0.4,0.6-0.7,0.6H410.9L410.9,224.5z"/>
		</g>
		<g>
			<polygon class="st2" points="423.8,231.1 421.7,227.5 418.4,231.1 416.4,231.1 416.6,229.8 420.5,225.7 418.1,221.7 418.3,220.5 
				420.2,220.5 422.1,224.1 425.2,220.5 427.2,220.5 427,221.8 423.3,225.9 425.9,229.9 425.7,231.1 			"/>
			<path class="st3" d="M426.6,221l-0.1,0.6l-3.9,4.2l2.7,4.2l-0.1,0.6h-1.2l-2.3-3.9h-0.1l-3.5,3.9H417l0.1-0.6l4-4.2l-2.5-4.2
				l0.1-0.6h1.2l2.1,3.9h0.1l3.4-3.9H426.6 M427.8,220h-1.2h-1.2H425l-0.3,0.3l-2.5,2.9l-1.5-2.7l-0.3-0.5h-0.6h-1.2h-0.9l-0.1,0.9
				l-0.1,0.6l-0.1,0.4l0.2,0.3l2.1,3.5l-3.5,3.6l-0.2,0.2l0,0.3l-0.1,0.6l-0.2,1.1h1.2h1.2h0.4l0.3-0.3l2.7-3l1.6,2.8l0.3,0.5h0.6
				h1.2h0.9l0.1-0.9l0.1-0.6l0.1-0.4l-0.2-0.3l-2.3-3.5l3.3-3.6l0.2-0.2l0-0.3l0.1-0.6L427.8,220L427.8,220z"/>
		</g>
		<g>
			<polygon class="st2" points="433.5,231.1 434.2,226.8 429.7,226.8 429,231.1 426.7,231.1 428.4,220.5 430.7,220.5 430,224.7 
				434.5,224.7 435.2,220.5 437.5,220.5 435.8,231.1 			"/>
			<path class="st3" d="M436.9,221l-1.5,9.7h-1.3l0.7-4.4h-5.5l-0.7,4.4h-1.3l1.5-9.7h1.3l-0.7,4.3h5.5l0.7-4.3H436.9 M438,220h-1.2
				h-1.3h-0.9l-0.1,0.8l-0.5,3.4h-3.5l0.5-3.1l0.2-1.2h-1.2h-1.3H428l-0.1,0.8l-1.5,9.7l-0.2,1.2h1.2h1.3h0.9l0.1-0.8l0.6-3.5h3.5
				l-0.5,3.2l-0.2,1.2h1.2h1.3h0.9l0.1-0.8l1.5-9.7L438,220L438,220z"/>
		</g>
		<g>
			<path class="st2" d="M440.8,231.3c-1,0-1.8-0.3-2.3-0.9c-0.5-0.5-0.6-1.3-0.5-2.1l0.8-5.1c0.3-1.8,1.7-2.9,3.6-2.9h2.7
				c1,0,1.8,0.3,2.3,0.9c0.5,0.5,0.6,1.3,0.5,2.1l-0.8,5.1c-0.3,1.8-1.7,2.9-3.6,2.9H440.8z M442.2,222.3c-0.6,0-1.1,0.5-1.2,1
				l-0.8,5.1c0,0.2,0,0.5,0.2,0.6c0.1,0.2,0.3,0.2,0.6,0.2h2.7c0.6,0,1.1-0.5,1.2-1l0.8-5.1c0-0.3,0-0.5-0.2-0.6
				c-0.1-0.2-0.3-0.2-0.6-0.2H442.2z"/>
			<path class="st3" d="M445.1,220.8c1.8,0,2.6,1,2.4,2.5l-0.8,5.1c-0.2,1.5-1.4,2.5-3.1,2.5h-2.7c-1.8,0-2.6-1-2.4-2.5l0.8-5.1
				c0.2-1.5,1.4-2.5,3.1-2.5H445.1 M441,229.8h2.7c0.8,0,1.6-0.6,1.7-1.5l0.8-5.1c0.1-0.8-0.4-1.5-1.2-1.5h-2.7
				c-0.8,0-1.6,0.6-1.7,1.5l-0.8,5.1C439.6,229.2,440.1,229.8,441,229.8 M445.1,219.8h-2.7c-2.2,0-3.8,1.3-4.1,3.3l-0.8,5.1
				c-0.2,1,0.1,1.9,0.6,2.6c0.4,0.5,1.2,1.1,2.7,1.1h2.7c2.2,0,3.8-1.3,4.1-3.3l0.8-5.1c0.2-1-0.1-1.9-0.6-2.6
				C447.4,220.4,446.6,219.8,445.1,219.8L445.1,219.8z M441,228.8c-0.1,0-0.2,0-0.2-0.1c0,0-0.1-0.1,0-0.2l0.8-5.1
				c0.1-0.3,0.4-0.6,0.7-0.6h2.7c0.1,0,0.2,0,0.2,0.1c0,0,0.1,0.1,0,0.2l-0.8,5.1c-0.1,0.3-0.4,0.6-0.7,0.6H441L441,228.8z"/>
		</g>
		<g>
			<path class="st2" d="M447.2,231.3l0.3-2h0.8c0.7,0,1-0.7,1.1-1.2l1.9-7.7h7.6l-1.7,10.7H455l1.4-8.7h-3.2l-1.5,5.9
				c-0.4,1.8-1.8,2.9-3.5,2.9H447.2z"/>
			<path class="st3" d="M458.4,221l-1.5,9.7h-1.3l1.4-8.7h-4.2l-1.6,6.3c-0.4,1.6-1.5,2.6-3,2.6h-0.4l0.2-1h0.4
				c0.7,0,1.3-0.5,1.6-1.6l1.8-7.3H458.4 M459.6,220h-1.2h-6.7H451l-0.2,0.8L449,228c-0.1,0.3-0.3,0.8-0.6,0.8H448h-0.9l-0.1,0.8
				l-0.2,1l-0.2,1.2h1.2h0.4c2,0,3.5-1.3,4-3.3l1.4-5.5h2.2l-1.2,7.5l-0.2,1.2h1.2h1.3h0.9l0.1-0.8l1.5-9.7L459.6,220L459.6,220z"/>
		</g>
		<g>
			<path class="st2" d="M462.4,231.3c-1,0-1.8-0.3-2.3-0.9c-0.5-0.5-0.6-1.3-0.5-2.1l0.8-5.1c0.3-1.8,1.7-2.9,3.6-2.9h2.7
				c1,0,1.8,0.3,2.3,0.9c0.5,0.5,0.6,1.3,0.5,2.1l-0.8,5.1c-0.3,1.8-1.7,2.9-3.6,2.9H462.4z M463.8,222.3c-0.6,0-1.1,0.5-1.2,1
				l-0.8,5.1c0,0.2,0,0.5,0.2,0.6c0.1,0.2,0.3,0.2,0.6,0.2h2.7c0.6,0,1.1-0.5,1.2-1l0.8-5.1c0-0.3,0-0.5-0.2-0.6
				c-0.1-0.2-0.3-0.2-0.6-0.2H463.8z"/>
			<path class="st3" d="M466.7,220.8c1.8,0,2.6,1,2.4,2.5l-0.8,5.1c-0.2,1.5-1.4,2.5-3.1,2.5h-2.7c-1.8,0-2.6-1-2.4-2.5l0.8-5.1
				c0.2-1.5,1.4-2.5,3.1-2.5H466.7 M462.5,229.8h2.7c0.8,0,1.6-0.6,1.7-1.5l0.8-5.1c0.1-0.8-0.4-1.5-1.2-1.5h-2.7
				c-0.8,0-1.6,0.6-1.7,1.5l-0.8,5.1C461.2,229.2,461.7,229.8,462.5,229.8 M466.7,219.8h-2.7c-2.2,0-3.8,1.3-4.1,3.3l-0.8,5.1
				c-0.2,1,0.1,1.9,0.6,2.6c0.4,0.5,1.2,1.1,2.7,1.1h2.7c2.2,0,3.8-1.3,4.1-3.3l0.8-5.1c0.2-1-0.1-1.9-0.6-2.6
				C469,220.4,468.2,219.8,466.7,219.8L466.7,219.8z M462.5,228.8c-0.1,0-0.2,0-0.2-0.1c0,0-0.1-0.1,0-0.2l0.8-5.1
				c0.1-0.3,0.4-0.6,0.7-0.6h2.7c0.1,0,0.2,0,0.2,0.1c0,0,0.1,0.1,0,0.2l-0.8,5.1c-0.1,0.3-0.4,0.6-0.7,0.6H462.5L462.5,228.8z"/>
		</g>
		<g>
			<path class="st2" d="M472.8,231.1c-1,0-1.8-0.3-2.3-0.9c-0.5-0.5-0.6-1.3-0.5-2.1l0.1-0.4c0.2-1.5,1.2-2.4,2.7-2.6l3.6-0.5
				c0.5-0.1,0.7-0.3,0.8-0.8l0.1-0.4c0-0.3,0-0.5-0.1-0.6c-0.1-0.2-0.3-0.2-0.6-0.2H472l-0.6-0.7l0.2-1.3h4.9c1,0,1.8,0.3,2.4,0.9
				c0.5,0.5,0.6,1.3,0.5,2.1l-0.1,0.5c-0.2,1.5-1.2,2.4-2.7,2.6l-3.6,0.5c-0.5,0.1-0.7,0.3-0.8,0.8l-0.1,0.4c0,0.3,0,0.5,0.1,0.6
				c0.1,0.2,0.3,0.2,0.6,0.2h5.2l-0.3,2H472.8z"/>
			<path class="st3" d="M476.5,221c1.8,0,2.6,1,2.4,2.5l-0.1,0.5c-0.2,1.3-1,2-2.3,2.2l-3.6,0.5c-0.6,0.1-1.1,0.5-1.2,1.2l-0.1,0.4
				c-0.1,0.8,0.4,1.5,1.2,1.5h4.7l-0.1,1h-4.7c-1.8,0-2.6-1-2.4-2.5l0.1-0.4c0.2-1.3,1-2,2.3-2.2l3.6-0.5c0.7-0.1,1.1-0.5,1.2-1.2
				l0.1-0.5c0.1-0.8-0.4-1.5-1.2-1.5h-4.1l-0.3-0.4l0.1-0.6H476.5 M476.5,220H472h-0.9l-0.1,0.9l-0.1,0.6l-0.1,0.4l0.3,0.3l0.3,0.4
				l0.3,0.4h0.5h4.1c0.1,0,0.2,0,0.2,0.1c0,0,0.1,0.1,0,0.2l-0.1,0.5c-0.1,0.3-0.1,0.3-0.3,0.4l-3.6,0.6c-1.7,0.3-2.8,1.4-3.1,3
				l-0.1,0.4c-0.2,1,0.1,1.9,0.6,2.5c0.4,0.5,1.2,1.1,2.7,1.1h4.7h0.9l0.1-0.9l0.1-1l0.2-1.1h-1.2H473c-0.1,0-0.2,0-0.2-0.1
				c0,0-0.1-0.1,0-0.2l0.1-0.4c0.1-0.3,0.1-0.3,0.3-0.3l3.6-0.5c1.7-0.3,2.8-1.4,3.1-3l0.1-0.5c0.2-1,0-1.9-0.6-2.5
				C478.8,220.5,478,220,476.5,220L476.5,220z"/>
		</g>
		<g>
			<path class="st2" d="M482.8,231.3c-1,0-1.8-0.3-2.3-0.9c-0.5-0.5-0.6-1.3-0.5-2.1l1.2-7.8h2.3l-1.3,8c0,0.3,0,0.5,0.2,0.6
				c0.1,0.2,0.3,0.2,0.6,0.2h2c0.5,0,0.9-0.2,1.3-0.7c0.2-0.2,0.3-0.4,0.5-0.7l1.2-7.5h2.3l-1.7,10.7h-1.8l0-0.5
				c-0.6,0.5-1.3,0.7-2,0.7H482.8z"/>
			<path class="st3" d="M489.7,221l-1.5,9.7h-0.8l0-1.3h-0.1c-0.2,0.3-0.4,0.5-0.6,0.7c-0.4,0.4-1,0.7-1.8,0.7h-2
				c-1.8,0-2.6-1-2.4-2.5l1.2-7.4h1.3l-1.2,7.4c-0.1,0.8,0.4,1.5,1.2,1.5h2c0.7,0,1.3-0.4,1.7-0.9c0.2-0.3,0.4-0.5,0.6-0.9l1.1-7.1
				H489.7 M490.8,220h-1.2h-1.3h-0.9l-0.1,0.8l-1.1,6.9c-0.1,0.2-0.3,0.4-0.4,0.6c-0.3,0.3-0.6,0.5-0.9,0.5h-2c-0.1,0-0.2,0-0.2-0.1
				c0,0-0.1-0.1,0-0.2l1.2-7.4l0.2-1.2h-1.2h-1.3h-0.9l-0.1,0.8l-1.2,7.4c-0.2,1,0.1,1.9,0.6,2.5c0.4,0.5,1.2,1.1,2.7,1.1h2
				c0.5,0,1-0.1,1.5-0.3l0,0.1h1h0.8h0.9l0.1-0.8l1.5-9.7L490.8,220L490.8,220z"/>
		</g>
		<g>
			<path class="st2" d="M493.8,231.3c-1,0-1.8-0.3-2.3-0.9c-0.5-0.5-0.6-1.3-0.5-2.1l1.2-7.8h2.3l-1.3,8c0,0.3,0,0.5,0.2,0.6
				c0.1,0.2,0.3,0.2,0.6,0.2h2c0.6,0,1-0.4,1.3-0.7c0.2-0.2,0.3-0.5,0.5-0.7l1.2-7.5h2.3l-1.7,10.7h-1.8l0-0.5
				c-0.6,0.5-1.3,0.7-2,0.7H493.8z M496.1,220.2c-1,0-1.5-0.4-1.7-0.7c-0.4-0.4-0.5-1-0.4-1.6l0.2-1.1h2.1L496,218
				c0,0.1,0,0.2,0,0.2c0,0,0.1,0.1,0.1,0.1h1.5c0.2,0,0.4-0.2,0.5-0.4l0.2-1.1h2.1l-0.2,1.2c-0.2,1.3-1.3,2.2-2.7,2.2H496.1z"/>
			<path class="st3" d="M499.8,217.3l-0.1,0.6c-0.2,1-1,1.7-2.2,1.7h-1.5c-1.2,0-1.8-0.7-1.6-1.7l0.1-0.6h1.1l-0.1,0.6
				c-0.1,0.5,0.2,0.8,0.7,0.8h1.5c0.5,0,0.9-0.4,1-0.8l0.1-0.6H499.8 M500.6,221l-1.5,9.7h-0.8l0-1.3h-0.1c-0.2,0.3-0.4,0.5-0.6,0.7
				c-0.4,0.4-1,0.7-1.8,0.7h-2c-1.8,0-2.6-1-2.4-2.5l1.2-7.4h1.3l-1.2,7.4c-0.1,0.8,0.4,1.5,1.2,1.5h2c0.7,0,1.3-0.4,1.7-0.9
				c0.2-0.3,0.4-0.5,0.6-0.9l1.1-7.1H500.6 M501,216.3h-1.2h-1.1h-0.9l-0.1,0.9l-0.1,0.6l-1.1,0l0-0.3l0.2-1.1h-1.2h-1.1h-0.9
				l-0.1,0.9l-0.1,0.6c-0.1,0.8,0.1,1.5,0.5,2c0,0.1,0.1,0.1,0.1,0.2h-0.2h-1.3h-0.9l-0.1,0.8l-1.2,7.4c-0.2,1,0.1,1.9,0.6,2.5
				c0.4,0.5,1.2,1.1,2.7,1.1h2c0.5,0,1-0.1,1.5-0.3l0,0.1h1h0.8h0.9l0.1-0.8l1.5-9.7l0.2-1.2h-1.2h-0.9c0.5-0.5,0.9-1.1,1-1.9
				l0.1-0.7L501,216.3L501,216.3z M493.9,228.8c-0.1,0-0.2,0-0.2-0.1c0,0-0.1-0.1,0-0.2l1.2-7.4l0.1-0.6c0.3,0.1,0.7,0.2,1.1,0.2
				h1.5c0.3,0,0.6,0,0.8-0.1l0,0.2l-1.1,6.9c-0.1,0.2-0.3,0.4-0.4,0.6c-0.3,0.3-0.6,0.5-0.9,0.5H493.9L493.9,228.8z"/>
		</g>
		<g>
			<path class="st2" d="M501.7,231.1l0.4-2.9h2.3l-0.4,2.9H501.7z M502.5,227.5l0.7-6.4l0.6-3.7h2.5l-0.6,3.9l-1.3,6.3H502.5z"/>
			<path class="st3" d="M505.7,217.9l-0.5,3.3L504,227h-0.9l0.7-5.8l0.5-3.3H505.7 M503.9,228.7l-0.3,1.9h-1.3l0.3-1.9H503.9
				 M506.8,216.9h-1.2h-1.5h-0.9l-0.1,0.8l-0.5,3.3l-0.7,5.9l-0.1,0.8h-0.2l-0.1,0.8l-0.3,1.9l-0.2,1.2h1.2h1.3h0.9l0.1-0.8l0.3-1.9
				l0.2-1.2h-0.2l0.1-0.5l1.2-5.8l0.5-3.3L506.8,216.9L506.8,216.9z"/>
		</g>
	</g>
</g>
</svg>
